<?xml version="1.0" encoding="iso-8859-1"?>
<!-- Generator: Adobe Illustrator 19.0.0, SVG Export Plug-In . SVG Version: 6.00 Build 0)  -->
<svg version="1.1" id="Layer_1" xmlns="http://www.w3.org/2000/svg" xmlns:xlink="http://www.w3.org/1999/xlink" x="0px" y="0px"
	 viewBox="0 0 512.001 512.001" style="enable-background:new 0 0 512.001 512.001;" xml:space="preserve">
<g>
	<g>
		<path d="M10.585,491.078h-0.137C4.679,491.078,0,495.756,0,501.526s4.679,10.448,10.448,10.448h0.137
			c5.769,0,10.448-4.678,10.448-10.448S16.354,491.078,10.585,491.078z"/>
	</g>
</g>
<g>
	<g>
		<path d="M501.501,491.078h-0.137c-5.769,0-10.448,4.678-10.448,10.448s4.679,10.448,10.448,10.448h0.137
			c5.769,0,10.448-4.678,10.448-10.448S507.27,491.078,501.501,491.078z"/>
	</g>
</g>
<g>
	<g>
		<path d="M294.078,212.118c-6.439,0-11.679,5.239-11.679,11.679c0,6.439,5.24,11.678,11.679,11.678
			c6.439,0,11.678-5.239,11.678-11.678C305.755,217.358,300.517,212.118,294.078,212.118z"/>
	</g>
</g>
<g>
	<g>
		<path d="M217.871,212.118c-6.439,0-11.678,5.239-11.678,11.679c0,6.439,5.239,11.678,11.678,11.678
			c6.439,0,11.679-5.239,11.679-11.678C229.549,217.357,224.31,212.118,217.871,212.118z"/>
	</g>
</g>
<g>
	<g>
		<path d="M281.275,456.078h-0.137c-5.769,0-10.448,4.677-10.448,10.448c0,5.77,4.679,10.448,10.448,10.448h0.137
			c5.769,0,10.448-4.678,10.448-10.448C291.723,460.756,287.044,456.078,281.275,456.078z"/>
	</g>
</g>
<g>
	<g>
		<path d="M230.993,456.077h-0.137c-5.769,0-10.448,4.678-10.448,10.448c0,5.77,4.679,10.448,10.448,10.448h0.137
			c5.769,0,10.448-4.677,10.448-10.448C241.441,460.755,236.763,456.077,230.993,456.077z"/>
	</g>
</g>
<g>
	<g>
		<path d="M501.552,29.077h-13.608V10.606c0-5.77-4.679-10.448-10.448-10.448s-10.448,4.678-10.448,10.448v18.471h-13.608
			c-5.769,0-10.448,4.678-10.448,10.448v161.678c0,5.77,4.679,10.448,10.448,10.448h13.608v18.231
			c0,5.77,4.679,10.448,10.448,10.448s10.448-4.678,10.448-10.448V211.65h13.608c5.769,0,10.448-4.678,10.448-10.448V39.525
			C512,33.754,507.321,29.077,501.552,29.077z M491.104,190.754h-27.218V49.972h27.218V190.754z"/>
	</g>
</g>
<g>
	<g>
		<path d="M10.499,114.102c-2.772,0-5.43,1.101-7.389,3.062c-1.96,1.96-3.06,4.619-3.059,7.391l0.095,247.038
			c0,14.65,11.919,26.57,26.57,26.57c14.651,0,26.57-11.919,26.57-26.57v-55.184h13.64c5.769,0,10.448-4.678,10.448-10.448V180.976
			C77.373,144.102,47.374,114.102,10.499,114.102z M26.715,377.268c-3.076,0-5.674-2.598-5.674-5.674v-55.184h11.348v55.184h0.001
			C32.39,374.669,29.791,377.268,26.715,377.268z M56.477,295.514H21.021l-0.069-159.316c20.333,4.745,35.525,23.022,35.525,44.78
			V295.514z"/>
	</g>
</g>
<g>
	<g>
		<path d="M470.141,314.322c-5.769,0-10.448,4.678-10.448,10.448v0.137c0,5.77,4.679,10.448,10.448,10.448
			c5.769,0,10.448-4.678,10.448-10.448v-0.137C480.589,318.999,475.911,314.322,470.141,314.322z"/>
	</g>
</g>
<g>
	<g>
		<path d="M470.142,348.259c-5.769,0-10.448,4.678-10.448,10.448v39.199c0,5.77,4.679,10.448,10.448,10.448
			s10.448-4.678,10.448-10.448v-39.199C480.59,352.936,475.913,348.259,470.142,348.259z"/>
	</g>
</g>
<g>
	<g>
		<path d="M197.055,456.078h-39.198c-5.769,0-10.448,4.677-10.448,10.448c0,5.77,4.679,10.448,10.448,10.448h39.199
			c5.769,0,10.448-4.678,10.448-10.448C207.504,460.756,202.826,456.078,197.055,456.078z"/>
	</g>
</g>
<g>
	<g>
		<path d="M501.552,270.54h-32.069c1.156-3.264,1.791-6.771,1.791-10.426c0-17.27-14.05-31.322-31.322-31.322
			s-31.322,14.051-31.322,31.322c0,3.655,0.635,7.162,1.791,10.426h-32.069c-5.769,0-10.448,4.678-10.448,10.448v87.487
			l-55.437-23.098c-2.391-0.996-3.936-3.313-3.936-5.904v-16.27l21.372-12.254c17.338-8.401,29.914-24.6,34.546-37.176
			c0.065-0.174,0.124-0.351,0.179-0.529c1.937-6.276,0.346-12.222-4.155-15.516c-0.006-0.005-0.016-0.01-0.022-0.016v-2.944
			c13.568-4.413,23.402-17.181,23.402-32.202s-9.835-27.788-23.402-32.202l-0.079-59.365c22.558-9.171,37.707-31.205,37.707-56.127
			c0-33.414-27.185-60.598-60.598-60.598c-10.429,0-20.662,2.71-29.669,7.762c-12.61-13.938-30.523-22.011-49.661-22.011
			c-19.783,0-38.483,8.853-51.107,23.684c-9.637-6.14-20.836-9.436-32.476-9.436c-33.414,0-60.598,27.184-60.598,60.598
			c0,24.782,15.043,46.773,37.445,56.016l0.08,59.478c-13.568,4.413-23.402,17.181-23.402,32.202s9.835,27.788,23.402,32.202v2.991
			c-4.468,3.299-6.047,9.226-4.118,15.482c0.055,0.18,0.115,0.357,0.18,0.534c4.065,11.033,14.245,24.86,28.389,33.759
			c0.003,0.003,3.066,1.844,4.558,2.621l22.91,13.098v16.22c0,2.59-1.545,4.907-3.936,5.904l-67.241,28.017
			c-17.597,7.332-29.887,26.677-29.887,47.041v70.644H44.386c-5.769,0-10.448,4.678-10.448,10.448
			c0,5.77,4.679,10.448,10.448,10.448h423.178c5.769,0,10.448-4.677,10.448-10.448c0-5.77-4.679-10.448-10.448-10.448h-57.965
			v-24.216h91.954c5.769,0,10.448-4.678,10.448-10.448V280.988C512,275.217,507.321,270.54,501.552,270.54z M439.953,249.688
			c5.748,0,10.426,4.678,10.426,10.426c0,5.748-4.678,10.426-10.426,10.426c-5.749,0-10.426-4.678-10.426-10.426
			C429.527,254.365,434.204,249.688,439.953,249.688z M134.866,74.873c0-21.892,17.811-39.702,39.702-39.702
			c10.261,0,20.004,3.914,27.431,11.019c2.314,2.213,5.518,3.243,8.682,2.796c3.17-0.447,5.959-2.323,7.57-5.088
			c8.252-14.173,23.541-22.977,39.901-22.977c15.641,0,30.096,7.841,38.668,20.975c1.626,2.491,4.236,4.171,7.176,4.618
			c2.94,0.45,5.932-0.378,8.226-2.272c7.084-5.851,16.055-9.072,25.262-9.072c21.892,0,39.702,17.811,39.702,39.702
			c0,18.164-12.272,33.982-29.842,38.469c-4.627,1.181-7.863,5.348-7.863,10.123v45.817H172.313v-45.886
			c0-4.754-3.209-8.908-7.809-10.108C147.054,108.73,134.866,92.933,134.866,74.873z M175.69,260.747
			c-1.471,0-2.498-0.001-3.299-0.054v-14.724c0-5.77-4.679-10.448-10.448-10.448c-7.143,0-12.954-5.812-12.954-12.954
			c0-7.142,5.812-12.954,12.954-12.954c5.769,0,10.448-4.678,10.448-10.448v-8.986h167.167v8.986c0,5.77,4.679,10.448,10.448,10.448
			c7.143,0,12.954,5.812,12.954,12.954c0,7.142-5.812,12.954-12.954,12.954c-5.769,0-10.448,4.678-10.448,10.448v14.727
			c-0.793,0.049-1.803,0.05-3.239,0.05c-5.138,0-10.948-4.038-17.676-8.714c-9.492-6.596-21.305-14.805-37.15-14.805
			c-6.248,0-15.301,1.623-25.489,8.537c-10.189-6.914-19.241-8.537-25.489-8.537c-15.844,0-27.658,8.209-37.15,14.805
			C186.639,256.709,180.829,260.747,175.69,260.747z M190.922,292.041l-4.288-2.451c-3.084-2.089-5.762-4.851-7.95-8.098
			c10.271-0.962,18.567-6.712,26.606-12.299c8.191-5.692,15.927-11.069,25.224-11.069c3.282,0,10.054,1.128,18.541,8.685
			c3.961,3.527,9.936,3.527,13.897,0c8.487-7.557,15.259-8.685,18.541-8.685c9.297,0,17.033,5.376,25.224,11.069
			c7.986,5.55,16.222,11.265,26.401,12.284c-2.216,3.259-4.912,6.04-7.979,8.118l-5.257,3.014
			c-4.211,1.894-8.797,3.061-13.666,3.061c-20.092,0-33.09-4.912-42.139-15.927c-1.984-2.416-4.946-3.816-8.073-3.816
			s-6.088,1.4-8.073,3.816c-9.049,11.014-22.046,15.927-42.139,15.927C200.456,295.67,195.458,294.269,190.922,292.041z
			 M223.677,345.317c0.413-1.893,0.634-3.849,0.634-5.845v-4.274l7.939,4.539c7.333,4.763,15.529,7.144,23.725,7.144
			c8.198,0,16.396-2.383,23.731-7.148l7.931-4.547v4.288c0,2.023,0.226,4.006,0.649,5.923l-32.212,10.498L223.677,345.317z
			 M245.526,382.33c-0.831,6.263-2.839,13.044-7.175,17.38c-5.531,5.531-14.966,7.291-22.338,7.623
			c0.332-7.38,2.092-16.811,7.621-22.339c5.347-5.346,14.334-7.164,21.588-7.58C245.269,378.959,245.366,380.606,245.526,382.33z
			 M229.477,314.082c10.397-2.431,19.147-6.672,26.528-12.875c7.364,6.188,16.092,10.424,26.457,12.858l-13.417,7.694
			c-0.19,0.11-0.377,0.225-0.56,0.346c-7.834,5.173-17.184,5.173-25.018,0c-0.187-0.123-0.377-0.241-0.573-0.352L229.477,314.082z
			 M266.909,377.419c7.219,0.425,16.252,2.24,21.586,7.575c5.531,5.53,7.291,14.964,7.624,22.335
			c-7.333-0.343-16.82-2.099-22.34-7.619c-4.337-4.337-6.349-11.074-7.179-17.335C266.764,380.636,266.861,378.976,266.909,377.419z
			 M388.699,491.076H123.247v-70.642c0-11.776,7.321-23.707,17.029-27.753l67.241-28.017c1.113-0.464,2.174-1.006,3.197-1.599
			l5.042,1.646c-2.431,1.545-4.755,3.364-6.898,5.506c-17.014,17.016-13.718,45.423-13.287,48.606
			c0.631,4.656,4.293,8.317,8.949,8.949c0.98,0.133,4.345,0.537,9.035,0.537c10.551,0,27.792-2.046,39.57-13.825
			c1.056-1.056,2.033-2.156,2.938-3.291c0.905,1.135,1.882,2.235,2.938,3.291c11.78,11.78,29.019,13.825,39.57,13.825
			c4.688,0,8.057-0.404,9.035-0.537c4.656-0.631,8.318-4.293,8.949-8.949c0.431-3.183,3.728-31.591-13.288-48.607
			c-2.134-2.135-4.449-3.949-6.871-5.49l4.93-1.607c0.994,0.569,2.023,1.095,3.101,1.544l67.241,28.016
			c9.707,4.044,17.028,15.976,17.028,27.753V491.076z M491.104,445.967h-81.506v-25.533c0-16.635-8.203-32.585-20.797-41.867
			v-87.132h102.303V445.967z"/>
	</g>
</g>
<g>
	<g>
		<path d="M354.274,456.077h-39.199c-5.769,0-10.448,4.678-10.448,10.448c0,5.77,4.679,10.448,10.448,10.448h39.199
			c5.769,0,10.448-4.677,10.448-10.448C364.722,460.755,360.043,456.077,354.274,456.077z"/>
	</g>
</g>
<g>
</g>
<g>
</g>
<g>
</g>
<g>
</g>
<g>
</g>
<g>
</g>
<g>
</g>
<g>
</g>
<g>
</g>
<g>
</g>
<g>
</g>
<g>
</g>
<g>
</g>
<g>
</g>
<g>
</g>
</svg>
