<?xml version="1.0" encoding="iso-8859-1"?>
<!-- Generator: Adobe Illustrator 16.0.0, SVG Export Plug-In . SVG Version: 6.00 Build 0)  -->
<!DOCTYPE svg PUBLIC "-//W3C//DTD SVG 1.1//EN" "http://www.w3.org/Graphics/SVG/1.1/DTD/svg11.dtd">
<svg version="1.1" id="Capa_1" xmlns="http://www.w3.org/2000/svg" xmlns:xlink="http://www.w3.org/1999/xlink" x="0px" y="0px"
	 width="612px" height="612px" viewBox="0 0 612 612" style="enable-background:new 0 0 612 612;" xml:space="preserve">
<g>
	<path d="M504.114,235.5c3.132,7.671-0.551,16.436-8.221,19.567c0,0-146.69,59.894-146.754,59.919
		c-3.186,1.378-6.484,2.304-9.824,2.304c-8.139,0-16.121-3.967-20.929-11.285l-72.783-110.831
		c-7.582-11.549-4.367-27.056,7.182-34.638c11.559-7.563,27.056-4.368,34.638,7.182l72.532,110.449l124.593-50.889
		C492.188,224.129,500.974,227.821,504.114,235.5z M339.296,19.573c-92.187,0-173.778,46.021-223.165,116.25
		c10.221,6.668,20.184,15.812,29.82,27.567c36.844-55.091,96.417-93.743,165.344-102.052l27.997,47.377l27.997-47.378
		c105.952,12.769,190.17,96.983,202.945,202.934l-47.385,28.001l47.386,28.002c-8.54,70.836-49.108,131.821-106.661,168.372
		c3.666,8.357,5.731,16.902,6.096,25.712c0.269,6.438-0.395,12.521-1.73,18.296C553.609,486.622,612,396.153,612,292.277
		C612,141.904,489.669,19.573,339.296,19.573z M408.887,468.69c-62.865-50.523-80.444-25.688-108.968,2.832
		c-19.914,19.921-70.308-21.678-113.821-65.193c-43.516-43.521-85.107-93.907-65.195-113.824
		c28.526-28.521,53.354-46.11,2.817-108.958c-50.52-62.871-84.198-14.603-111.829,13.03c-31.9,31.889-1.681,150.726,115.769,268.194
		c117.466,117.452,236.302,147.651,268.183,115.774C423.471,552.911,471.753,519.237,408.887,468.69z M78.47,217.634
		c-0.848,0.346-2.093,0.856-3.676,1.504c-2.998,1.149-6.582,2.447-10.569,4.183c-1.861,0.896-3.948,1.867-5.851,3.063
		c-1.973,1.179-3.936,2.515-5.703,4.168c-1.932,1.563-3.433,3.562-5.17,5.656c-1.292,2.31-2.958,4.669-3.858,7.505
		c-1.307,2.684-1.776,5.775-2.557,8.817c-0.601,3.086-0.707,6.293-1.089,9.425c-0.038,6.331,0.207,12.412,1.022,17.595
		c0.427,5.268,1.764,9.718,2.292,12.804c0.646,3.095,1.016,4.863,1.016,4.863s-0.951-1.538-2.614-4.229
		c-1.578-2.771-4.255-6.334-6.606-11.4c-2.709-4.925-5.236-10.984-7.64-17.802c-0.855-3.518-2.016-7.167-2.658-11.076
		c-0.453-3.952-1.2-8.029-0.9-12.321c-0.13-4.285,0.747-8.616,1.543-12.993c1.267-4.239,2.617-8.537,4.685-12.36
		c1.889-3.908,4.267-7.445,6.643-10.53c2.39-3.179,4.857-5.78,7.182-8.2c4.639-4.564,8.666-7.899,11.013-9.946
		c1.342-1.125,1.893-1.733,2.492-2.267c0.53-0.496,0.812-0.761,0.812-0.761l21.559,33.719
		C79.837,217.054,79.362,217.255,78.47,217.634z M402.019,537.949c-2.114,2.634-5.432,6.707-9.93,11.323
		c-2.398,2.272-4.871,4.736-7.948,7.061c-2.884,2.409-6.389,4.614-9.959,6.683c-3.679,2.022-7.594,3.758-11.729,5.049
		c-4.091,1.245-8.339,2.252-12.509,2.59l-6.204,0.444l-6.018-0.323c-3.96-0.05-7.647-1.105-11.199-1.697
		c-3.543-0.658-6.756-1.974-9.832-2.857c-3.075-0.83-5.834-2.346-8.387-3.355c-5.168-2.053-8.871-4.424-11.664-5.892
		c-2.743-1.511-4.31-2.375-4.31-2.375s1.767,0.271,4.86,0.746c3.073,0.412,7.56,1.383,12.755,1.486
		c2.617,0.055,5.3,0.511,8.274,0.235c2.935-0.228,5.996-0.081,9.061-0.628c3.043-0.608,6.2-0.782,9.13-1.889l4.4-1.35l4.083-1.908
		c10.78-5.222,16.646-14.421,20.044-22.099c1.682-3.961,2.887-7.457,3.795-10.193c0.988-2.88,1.554-4.526,1.554-4.526l34.919,19.556
		C405.206,534.029,404.047,535.455,402.019,537.949z"/>
</g>
<g>
</g>
<g>
</g>
<g>
</g>
<g>
</g>
<g>
</g>
<g>
</g>
<g>
</g>
<g>
</g>
<g>
</g>
<g>
</g>
<g>
</g>
<g>
</g>
<g>
</g>
<g>
</g>
<g>
</g>
</svg>
